<?xml version="1.0" encoding="UTF-8"?>
<svg id="Layer_1" data-name="Layer 1" xmlns="http://www.w3.org/2000/svg" viewBox="0 0 612 622.3">
  <defs>
    <style>
      .cls-1 {
        fill: #2e3f34;
      }
    </style>
  </defs>
  <path class="cls-1" d="M598.17,247.44c-2.77-8.15-7.08-12.82-11.48-19.99l.59,7.43c-.18,1.39,1.74,2.84,1.9,3.57,1.19,5.63,4.88,31.19,3.77,35.22-.42,1.51-2.34,2.74-2.53,4.37-.27,2.29,2.31,5.39,2.7,7.92.33,2.18.8,18.61.05,19.42-3.03,3.28-1.05-4.98-1.08-5.38-.19-2.26-.82-6.54-1.4-8.65-.49-1.78-.29-2.33-2.49-1.95.82,8.87-2.78,17.03-2.01,25.97l-2.98-1c-5.43,40.09-16.08,83.17-35.45,118.91-40.37,74.46-114.65,131.64-199.31,144.34-9.34,1.4-22.67,3.23-31.46,3.62-56.57,2.47-118.9-17.8-164.84-50.09-14-9.85-25.53-22.96-39.49-32.95-.68-2.04-1.51-5.48-4-5-.4-.59-.59-1.43-1-2-7.05-9.69-15.77-18.37-22.98-27.97-1.32-5.9-2.51-4.41-5-7.99-1.35-1.94-.18-3.8-4-5.99-.3-.17-.57-.83-1-1l-16.98-31.97c-.03-.33.06-.69,0-1-1.49-7.28-5.57-14.62-7.69-21.78-3.45-11.65-5.6-23.61-8.61-35.35-.46-1.79-1.99-4.83-2.68-6.81.08-.63-.03-1.34,0-2,.71-17.85-3.7-36.45-2.99-54.44,4.32-109.08,71.13-205.28,172.82-244.27,12.25-4.7,26.11-9.64,38.91-12.54,9.02-2.04,19.4-1.98,28.02-5.44.65.08,1.34-.05,2,0,3,.23,6.72,1.71,9.99-1,.67,0,1.33,0,2,0,28.9.17,51.47.96,79.92,6.99,46.14,9.79,82.46,33.93,117.82,61.48,13.76,10.72,30.13,28.04,41,41.94,2.72,3.48,12.98,20.16,14.32,21.14,1.04.75,2.89.6,4.03,1.45,5.61,4.15,20.89,18.79,13.65,1.87,11,3.3,3.57-7.69,2.2-12.7-1.12-4.12-1.29-8.18-2.66-12.33-.43-1.31-4.49-7.75-5.58-9.4-41.3-62.58-99.27-100.15-170.2-120.52C305.5-10.97,224.19-.03,153.09,39.62,48.64,97.88-11.22,225,1.75,343.34c3.25,29.6,10.62,56.5,21.27,83.16,1.24,3.11,4.24,13.18,5.65,15.1.52.71,1.27.69,2.05.64v1c1.14,7.54,6.58,14.84,10.99,20.98-.07.29,0,.69,0,1,0,.54,4.17,8.47,4.83,9.66,38.15,68.91,125.52,126.87,202.7,141.96,148.19,28.98,295.6-60.23,346.41-200.59,20.79-57.43,21.89-111.82,2.52-168.81Z"/>
</svg>